<mxfile modified="2019-12-26T06:06:30.521Z" host="www.draw.io" agent="Mozilla/5.0 (Windows NT 10.0; Win64; x64) AppleWebKit/537.36 (KHTML, like Gecko) Chrome/79.0.3945.88 Safari/537.36" etag="wtY9Ya1Uf-0GStStBYzt" version="12.4.3" type="github" pages="1">
  <diagram id="BkKYtIIfcln-k69gtKJk" name="第 1 页">
    <mxGraphModel dx="1422" dy="762" grid="1" gridSize="10" guides="1" tooltips="1" connect="1" arrows="1" fold="1" page="1" pageScale="1" pageWidth="827" pageHeight="1169" math="0" shadow="0">
      <root>
        <mxCell id="0"/>
        <mxCell id="1" parent="0"/>
        <mxCell id="jN9AiRauHcV2O4d2IQwx-1" value="" style="rounded=0;whiteSpace=wrap;html=1;strokeColor=#6c8ebf;fillColor=#dae8fc;" parent="1" vertex="1">
          <mxGeometry x="275" y="480" width="490" height="520" as="geometry"/>
        </mxCell>
        <mxCell id="jN9AiRauHcV2O4d2IQwx-2" value="" style="edgeStyle=orthogonalEdgeStyle;rounded=0;orthogonalLoop=1;jettySize=auto;html=1;strokeColor=#000000;entryX=0.5;entryY=0;entryDx=0;entryDy=0;" parent="1" source="jN9AiRauHcV2O4d2IQwx-3" target="jN9AiRauHcV2O4d2IQwx-8" edge="1">
          <mxGeometry relative="1" as="geometry">
            <mxPoint x="520" y="736" as="targetPoint"/>
          </mxGeometry>
        </mxCell>
        <mxCell id="jN9AiRauHcV2O4d2IQwx-33" style="edgeStyle=orthogonalEdgeStyle;rounded=0;orthogonalLoop=1;jettySize=auto;html=1;dashed=1;" parent="1" source="jN9AiRauHcV2O4d2IQwx-32" target="jN9AiRauHcV2O4d2IQwx-3" edge="1">
          <mxGeometry relative="1" as="geometry">
            <Array as="points">
              <mxPoint x="830" y="634"/>
            </Array>
          </mxGeometry>
        </mxCell>
        <mxCell id="jN9AiRauHcV2O4d2IQwx-3" value="海勃箱货数据&lt;br&gt;更新接口" style="rounded=0;whiteSpace=wrap;html=1;strokeColor=#000000;fillColor=#99FF99;" parent="1" vertex="1">
          <mxGeometry x="460" y="604" width="120" height="60" as="geometry"/>
        </mxCell>
        <mxCell id="jN9AiRauHcV2O4d2IQwx-4" style="edgeStyle=orthogonalEdgeStyle;rounded=0;orthogonalLoop=1;jettySize=auto;html=1;strokeColor=#000000;entryX=0.5;entryY=0;entryDx=0;entryDy=0;" parent="1" source="jN9AiRauHcV2O4d2IQwx-8" target="jN9AiRauHcV2O4d2IQwx-11" edge="1">
          <mxGeometry relative="1" as="geometry">
            <mxPoint x="420" y="925" as="targetPoint"/>
            <Array as="points">
              <mxPoint x="520" y="780"/>
              <mxPoint x="390" y="780"/>
            </Array>
          </mxGeometry>
        </mxCell>
        <mxCell id="jN9AiRauHcV2O4d2IQwx-5" value="箱货数据" style="text;html=1;resizable=0;points=[];align=center;verticalAlign=middle;labelBackgroundColor=#ffffff;" parent="jN9AiRauHcV2O4d2IQwx-4" vertex="1" connectable="0">
          <mxGeometry x="0.4246" y="1" relative="1" as="geometry">
            <mxPoint x="54.5" y="-1" as="offset"/>
          </mxGeometry>
        </mxCell>
        <mxCell id="jN9AiRauHcV2O4d2IQwx-6" style="edgeStyle=orthogonalEdgeStyle;rounded=0;orthogonalLoop=1;jettySize=auto;html=1;strokeColor=#000000;" parent="1" source="jN9AiRauHcV2O4d2IQwx-8" target="jN9AiRauHcV2O4d2IQwx-14" edge="1">
          <mxGeometry relative="1" as="geometry">
            <mxPoint x="630" y="925" as="targetPoint"/>
            <Array as="points">
              <mxPoint x="520" y="780"/>
              <mxPoint x="650" y="780"/>
            </Array>
          </mxGeometry>
        </mxCell>
        <mxCell id="jN9AiRauHcV2O4d2IQwx-7" value="查验数据" style="text;html=1;resizable=0;points=[];align=center;verticalAlign=middle;labelBackgroundColor=#ffffff;" parent="jN9AiRauHcV2O4d2IQwx-6" vertex="1" connectable="0">
          <mxGeometry x="0.4722" y="-1" relative="1" as="geometry">
            <mxPoint x="-59" y="-1" as="offset"/>
          </mxGeometry>
        </mxCell>
        <mxCell id="jN9AiRauHcV2O4d2IQwx-8" value="判断更新数据类别" style="rhombus;whiteSpace=wrap;html=1;" parent="1" vertex="1">
          <mxGeometry x="455" y="695" width="130" height="62" as="geometry"/>
        </mxCell>
        <mxCell id="jN9AiRauHcV2O4d2IQwx-9" style="edgeStyle=orthogonalEdgeStyle;rounded=0;orthogonalLoop=1;jettySize=auto;html=1;strokeColor=#000000;dashed=1;" parent="1" source="jN9AiRauHcV2O4d2IQwx-11" target="jN9AiRauHcV2O4d2IQwx-15" edge="1">
          <mxGeometry relative="1" as="geometry"/>
        </mxCell>
        <mxCell id="jN9AiRauHcV2O4d2IQwx-10" style="edgeStyle=orthogonalEdgeStyle;rounded=0;orthogonalLoop=1;jettySize=auto;html=1;strokeColor=#000000;" parent="1" source="jN9AiRauHcV2O4d2IQwx-11" target="jN9AiRauHcV2O4d2IQwx-19" edge="1">
          <mxGeometry relative="1" as="geometry"/>
        </mxCell>
        <mxCell id="jN9AiRauHcV2O4d2IQwx-11" value="数据入库&lt;br&gt;(箱货数据更新表)" style="rounded=0;whiteSpace=wrap;html=1;strokeColor=#000000;fillColor=#FFFFFF;" parent="1" vertex="1">
          <mxGeometry x="330" y="830" width="120" height="60" as="geometry"/>
        </mxCell>
        <mxCell id="jN9AiRauHcV2O4d2IQwx-12" style="edgeStyle=orthogonalEdgeStyle;rounded=0;orthogonalLoop=1;jettySize=auto;html=1;strokeColor=#000000;dashed=1;" parent="1" source="jN9AiRauHcV2O4d2IQwx-14" target="jN9AiRauHcV2O4d2IQwx-16" edge="1">
          <mxGeometry relative="1" as="geometry"/>
        </mxCell>
        <mxCell id="jN9AiRauHcV2O4d2IQwx-13" style="edgeStyle=orthogonalEdgeStyle;rounded=0;orthogonalLoop=1;jettySize=auto;html=1;entryX=0.5;entryY=0;entryDx=0;entryDy=0;strokeColor=#000000;" parent="1" source="jN9AiRauHcV2O4d2IQwx-14" target="jN9AiRauHcV2O4d2IQwx-19" edge="1">
          <mxGeometry relative="1" as="geometry"/>
        </mxCell>
        <mxCell id="jN9AiRauHcV2O4d2IQwx-14" value="数据入库&lt;br&gt;(查验数据更新表)" style="rounded=0;whiteSpace=wrap;html=1;strokeColor=#000000;fillColor=#FFFFFF;" parent="1" vertex="1">
          <mxGeometry x="590" y="830" width="120" height="60" as="geometry"/>
        </mxCell>
        <mxCell id="jN9AiRauHcV2O4d2IQwx-15" value="箱货数据更新表" style="shape=document;whiteSpace=wrap;html=1;boundedLbl=1;fillColor=#FFB366;" parent="1" vertex="1">
          <mxGeometry x="330" y="1160" width="120" height="80" as="geometry"/>
        </mxCell>
        <mxCell id="jN9AiRauHcV2O4d2IQwx-16" value="查验数据更新表" style="shape=document;whiteSpace=wrap;html=1;boundedLbl=1;fillColor=#FFB366;" parent="1" vertex="1">
          <mxGeometry x="590" y="1160" width="120" height="80" as="geometry"/>
        </mxCell>
        <mxCell id="jN9AiRauHcV2O4d2IQwx-17" value="" style="edgeStyle=orthogonalEdgeStyle;rounded=0;orthogonalLoop=1;jettySize=auto;html=1;strokeColor=#000000;" parent="1" source="jN9AiRauHcV2O4d2IQwx-18" target="jN9AiRauHcV2O4d2IQwx-3" edge="1">
          <mxGeometry relative="1" as="geometry"/>
        </mxCell>
        <mxCell id="jN9AiRauHcV2O4d2IQwx-18" value="定时执行" style="shape=mxgraph.bpmn.shape;html=1;verticalLabelPosition=bottom;labelBackgroundColor=#ffffff;verticalAlign=top;align=center;perimeter=ellipsePerimeter;outlineConnect=0;outline=standard;symbol=timer;strokeColor=#000000;fillColor=none;" parent="1" vertex="1">
          <mxGeometry x="490" y="498" width="60" height="60" as="geometry"/>
        </mxCell>
        <mxCell id="jN9AiRauHcV2O4d2IQwx-34" style="edgeStyle=orthogonalEdgeStyle;rounded=0;orthogonalLoop=1;jettySize=auto;html=1;dashed=1;exitX=0.5;exitY=1;exitDx=0;exitDy=0;" parent="1" source="jN9AiRauHcV2O4d2IQwx-32" target="jN9AiRauHcV2O4d2IQwx-19" edge="1">
          <mxGeometry relative="1" as="geometry">
            <Array as="points">
              <mxPoint x="830" y="220"/>
              <mxPoint x="830" y="950"/>
            </Array>
          </mxGeometry>
        </mxCell>
        <mxCell id="jN9AiRauHcV2O4d2IQwx-19" value="海勃数据消费接口" style="rounded=0;whiteSpace=wrap;html=1;strokeColor=#000000;fillColor=#99FF99;" parent="1" vertex="1">
          <mxGeometry x="460" y="920" width="120" height="60" as="geometry"/>
        </mxCell>
        <mxCell id="jN9AiRauHcV2O4d2IQwx-20" value="&lt;h1&gt;海勃箱货数据更新&lt;/h1&gt;" style="text;html=1;strokeColor=none;fillColor=none;spacing=5;spacingTop=-20;whiteSpace=wrap;overflow=hidden;rounded=0;" parent="1" vertex="1">
          <mxGeometry x="275" y="440" width="290" height="40" as="geometry"/>
        </mxCell>
        <mxCell id="jN9AiRauHcV2O4d2IQwx-21" value="船期数据更新表" style="shape=document;whiteSpace=wrap;html=1;boundedLbl=1;fillColor=#FFB366;" parent="1" vertex="1">
          <mxGeometry x="1035" y="1160" width="120" height="80" as="geometry"/>
        </mxCell>
        <mxCell id="jN9AiRauHcV2O4d2IQwx-22" style="edgeStyle=orthogonalEdgeStyle;rounded=0;orthogonalLoop=1;jettySize=auto;html=1;dashed=1;strokeColor=#000000;" parent="1" source="jN9AiRauHcV2O4d2IQwx-23" target="jN9AiRauHcV2O4d2IQwx-21" edge="1">
          <mxGeometry relative="1" as="geometry"/>
        </mxCell>
        <mxCell id="jN9AiRauHcV2O4d2IQwx-23" value="" style="rounded=0;whiteSpace=wrap;html=1;strokeColor=#6c8ebf;fillColor=#dae8fc;" parent="1" vertex="1">
          <mxGeometry x="910" y="467" width="370" height="520" as="geometry"/>
        </mxCell>
        <mxCell id="jN9AiRauHcV2O4d2IQwx-24" value="" style="edgeStyle=orthogonalEdgeStyle;rounded=0;orthogonalLoop=1;jettySize=auto;html=1;strokeColor=#000000;" parent="1" source="jN9AiRauHcV2O4d2IQwx-25" target="jN9AiRauHcV2O4d2IQwx-27" edge="1">
          <mxGeometry relative="1" as="geometry">
            <mxPoint x="1095" y="682" as="targetPoint"/>
          </mxGeometry>
        </mxCell>
        <mxCell id="jN9AiRauHcV2O4d2IQwx-35" style="edgeStyle=orthogonalEdgeStyle;rounded=0;orthogonalLoop=1;jettySize=auto;html=1;dashed=1;" parent="1" target="jN9AiRauHcV2O4d2IQwx-25" edge="1">
          <mxGeometry relative="1" as="geometry">
            <mxPoint x="820" y="212" as="sourcePoint"/>
            <Array as="points">
              <mxPoint x="830" y="212"/>
              <mxPoint x="830" y="665"/>
            </Array>
          </mxGeometry>
        </mxCell>
        <mxCell id="jN9AiRauHcV2O4d2IQwx-25" value="海勃船期数据&lt;br&gt;更新接口" style="rounded=0;whiteSpace=wrap;html=1;strokeColor=#000000;fillColor=#99FF99;" parent="1" vertex="1">
          <mxGeometry x="1035" y="634.5" width="120" height="60" as="geometry"/>
        </mxCell>
        <mxCell id="jN9AiRauHcV2O4d2IQwx-26" style="edgeStyle=orthogonalEdgeStyle;rounded=0;orthogonalLoop=1;jettySize=auto;html=1;strokeColor=#000000;" parent="1" source="jN9AiRauHcV2O4d2IQwx-27" target="jN9AiRauHcV2O4d2IQwx-30" edge="1">
          <mxGeometry relative="1" as="geometry"/>
        </mxCell>
        <mxCell id="jN9AiRauHcV2O4d2IQwx-27" value="数据入库&lt;br&gt;(船期数据更新表)" style="rounded=0;whiteSpace=wrap;html=1;strokeColor=#000000;fillColor=#FFFFFF;" parent="1" vertex="1">
          <mxGeometry x="1035" y="763.5" width="120" height="60" as="geometry"/>
        </mxCell>
        <mxCell id="jN9AiRauHcV2O4d2IQwx-28" value="" style="edgeStyle=orthogonalEdgeStyle;rounded=0;orthogonalLoop=1;jettySize=auto;html=1;strokeColor=#000000;" parent="1" source="jN9AiRauHcV2O4d2IQwx-29" target="jN9AiRauHcV2O4d2IQwx-25" edge="1">
          <mxGeometry relative="1" as="geometry"/>
        </mxCell>
        <mxCell id="jN9AiRauHcV2O4d2IQwx-29" value="定时执行" style="shape=mxgraph.bpmn.shape;html=1;verticalLabelPosition=bottom;labelBackgroundColor=#ffffff;verticalAlign=top;align=center;perimeter=ellipsePerimeter;outlineConnect=0;outline=standard;symbol=timer;strokeColor=#000000;fillColor=none;" parent="1" vertex="1">
          <mxGeometry x="1065" y="497" width="60" height="60" as="geometry"/>
        </mxCell>
        <mxCell id="jN9AiRauHcV2O4d2IQwx-36" style="edgeStyle=orthogonalEdgeStyle;rounded=0;orthogonalLoop=1;jettySize=auto;html=1;dashed=1;" parent="1" target="jN9AiRauHcV2O4d2IQwx-30" edge="1">
          <mxGeometry relative="1" as="geometry">
            <mxPoint x="820" y="211" as="sourcePoint"/>
            <Array as="points">
              <mxPoint x="830" y="211"/>
              <mxPoint x="830" y="922"/>
            </Array>
          </mxGeometry>
        </mxCell>
        <mxCell id="jN9AiRauHcV2O4d2IQwx-30" value="海勃数据消费接口" style="rounded=0;whiteSpace=wrap;html=1;strokeColor=#000000;fillColor=#99FF99;" parent="1" vertex="1">
          <mxGeometry x="1035" y="892" width="120" height="60" as="geometry"/>
        </mxCell>
        <mxCell id="jN9AiRauHcV2O4d2IQwx-31" value="&lt;h1&gt;海勃船期数据更新&lt;/h1&gt;" style="text;html=1;strokeColor=none;fillColor=none;spacing=5;spacingTop=-20;whiteSpace=wrap;overflow=hidden;rounded=0;" parent="1" vertex="1">
          <mxGeometry x="910" y="430" width="290" height="37" as="geometry"/>
        </mxCell>
        <mxCell id="jN9AiRauHcV2O4d2IQwx-32" value="海勃接口服务" style="shape=process;whiteSpace=wrap;html=1;backgroundOutline=1;fillColor=#dae8fc;strokeColor=#000000;" parent="1" vertex="1">
          <mxGeometry x="737" y="175" width="180" height="90" as="geometry"/>
        </mxCell>
      </root>
    </mxGraphModel>
  </diagram>
</mxfile>
